<svg xmlns="http://www.w3.org/2000/svg" viewBox="0 0 1200 200" width="1200" height="200">
  <defs>
    <style>
      @keyframes s1 { 0%,100%{opacity:0.08} 50%{opacity:0.5} }
      @keyframes s2 { 0%,100%{opacity:0.12} 50%{opacity:0.6} }
      @keyframes s3 { 0%,100%{opacity:0.06} 50%{opacity:0.4} }
      @keyframes s4 { 0%,100%{opacity:0.15} 50%{opacity:0.8} }
      @keyframes s5 { 0%,100%{opacity:0.1} 50%{opacity:0.45} }
      .p{fill:#4a90d9;rx:1}
      .t1{animation:s1 4s ease-in-out infinite}
      .t2{animation:s2 3.5s ease-in-out 0.4s infinite}
      .t3{animation:s3 4.5s ease-in-out 0.8s infinite}
      .t4{animation:s4 3s ease-in-out 1.2s infinite}
      .t5{animation:s5 4s ease-in-out 1.6s infinite}
      .t6{animation:s1 3.8s ease-in-out 2s infinite}
      .t7{animation:s2 4.2s ease-in-out 2.4s infinite}
      .t8{animation:s3 3.6s ease-in-out 0.2s infinite}
      .t9{animation:s4 4s ease-in-out 1s infinite}
      .t10{animation:s5 3.4s ease-in-out 1.8s infinite}
      /* Bright center pixels */
      .b{fill:#4a90d9;opacity:0.7}
      .bb{fill:#4a90d9;opacity:1}
      .bm{fill:#4a90d9;opacity:0.45}
      .bd{fill:#4a90d9;opacity:0.25}
    </style>
    <linearGradient id="bg" x1="0" y1="0" x2="1" y2="1">
      <stop offset="0%" stop-color="#0f0f1a"/>
      <stop offset="100%" stop-color="#1a1a2e"/>
    </linearGradient>
  </defs>

  <rect width="1200" height="200" fill="url(#bg)"/>

  <!-- Row 1 (y=10) -->
  <rect class="p t3" x="30" y="10" width="6" height="6"/>
  <rect class="p t1" x="90" y="10" width="6" height="6"/>
  <rect class="p t5" x="170" y="12" width="5" height="5"/>
  <rect class="p t2" x="250" y="10" width="6" height="6"/>
  <rect class="p t8" x="340" y="11" width="5" height="5"/>
  <rect class="p t4" x="420" y="10" width="6" height="6"/>
  <rect class="p t6" x="510" y="12" width="5" height="5"/>
  <rect class="p t1" x="590" y="10" width="6" height="6"/>
  <rect class="p t9" x="680" y="10" width="6" height="6"/>
  <rect class="p t3" x="760" y="11" width="5" height="5"/>
  <rect class="p t7" x="850" y="10" width="6" height="6"/>
  <rect class="p t2" x="930" y="12" width="5" height="5"/>
  <rect class="p t10" x="1020" y="10" width="6" height="6"/>
  <rect class="p t5" x="1100" y="10" width="6" height="6"/>
  <rect class="p t8" x="1160" y="11" width="5" height="5"/>

  <!-- Row 2 (y=28) -->
  <rect class="p t7" x="15" y="28" width="5" height="5"/>
  <rect class="p t4" x="60" y="30" width="6" height="6"/>
  <rect class="p t1" x="130" y="28" width="7" height="7"/>
  <rect class="p t9" x="210" y="30" width="5" height="5"/>
  <rect class="p t6" x="290" y="28" width="6" height="6"/>
  <rect class="p t2" x="380" y="29" width="7" height="7"/>
  <rect class="p t10" x="460" y="28" width="6" height="6"/>
  <rect class="p t5" x="550" y="30" width="7" height="7"/>
  <rect class="p t3" x="640" y="28" width="6" height="6"/>
  <rect class="p t8" x="720" y="29" width="7" height="7"/>
  <rect class="p t1" x="810" y="28" width="6" height="6"/>
  <rect class="p t4" x="890" y="30" width="7" height="7"/>
  <rect class="p t7" x="970" y="28" width="6" height="6"/>
  <rect class="p t2" x="1060" y="29" width="7" height="7"/>
  <rect class="p t6" x="1140" y="28" width="6" height="6"/>

  <!-- Row 3 (y=48) -->
  <rect class="p t2" x="45" y="48" width="6" height="6"/>
  <rect class="p t5" x="110" y="50" width="7" height="7"/>
  <rect class="p t9" x="190" y="48" width="6" height="6"/>
  <rect class="p t3" x="270" y="49" width="7" height="7"/>
  <rect class="p t7" x="350" y="48" width="8" height="8"/>
  <rect class="p t1" x="440" y="50" width="7" height="7"/>
  <rect class="p t4" x="520" y="48" width="8" height="8"/>
  <rect class="p t10" x="610" y="49" width="7" height="7"/>
  <rect class="p t6" x="690" y="48" width="8" height="8"/>
  <rect class="p t8" x="780" y="50" width="7" height="7"/>
  <rect class="p t2" x="860" y="48" width="8" height="8"/>
  <rect class="p t5" x="950" y="49" width="7" height="7"/>
  <rect class="p t9" x="1040" y="48" width="6" height="6"/>
  <rect class="p t3" x="1120" y="50" width="7" height="7"/>

  <!-- Row 4 (y=68) — getting closer to center, slightly bigger -->
  <rect class="p t8" x="25" y="68" width="7" height="7"/>
  <rect class="p t1" x="80" y="70" width="7" height="7"/>
  <rect class="p t6" x="155" y="68" width="8" height="8"/>
  <rect class="p t4" x="235" y="69" width="8" height="8"/>
  <rect class="p t10" x="320" y="68" width="8" height="8"/>
  <rect class="p t2" x="400" y="70" width="9" height="9"/>
  <rect class="p t7" x="490" y="68" width="9" height="9"/>
  <rect class="p t5" x="570" y="69" width="9" height="9"/>
  <rect class="p t3" x="660" y="68" width="9" height="9"/>
  <rect class="p t9" x="740" y="70" width="9" height="9"/>
  <rect class="p t1" x="830" y="68" width="8" height="8"/>
  <rect class="p t4" x="910" y="69" width="8" height="8"/>
  <rect class="p t8" x="1000" y="68" width="8" height="8"/>
  <rect class="p t6" x="1080" y="70" width="7" height="7"/>
  <rect class="p t2" x="1150" y="68" width="7" height="7"/>

  <!-- Row 5 (y=88) — center band, brightest -->
  <rect class="p t5" x="40" y="88" width="8" height="8"/>
  <rect class="p t9" x="105" y="90" width="8" height="8"/>
  <rect class="p t2" x="180" y="88" width="9" height="9"/>
  <rect class="p t7" x="260" y="89" width="9" height="9"/>
  <rect class="p t3" x="345" y="88" width="10" height="10"/>
  <rect class="p t1" x="430" y="90" width="10" height="10"/>

  <!-- CENTER PIXEL MARK -->
  <rect class="bd" x="518" y="82" width="10" height="10" rx="1.5"/>
  <rect class="bm" x="532" y="82" width="10" height="10" rx="1.5"/>
  <rect class="bd" x="546" y="82" width="10" height="10" rx="1.5"/>
  <rect class="bb" x="504" y="96" width="10" height="10" rx="1.5"/>
  <rect class="bd" x="518" y="96" width="10" height="10" rx="1.5"/>
  <rect class="bb" x="546" y="96" width="10" height="10" rx="1.5"/>
  <rect class="bm" x="560" y="96" width="10" height="10" rx="1.5"/>
  <rect class="bm" x="504" y="110" width="10" height="10" rx="1.5"/>
  <rect class="bb" x="532" y="110" width="10" height="10" rx="1.5"/>
  <rect class="bm" x="560" y="110" width="10" height="10" rx="1.5"/>

  <rect class="p t4" x="640" y="88" width="10" height="10"/>
  <rect class="p t10" x="730" y="90" width="10" height="10"/>
  <rect class="p t6" x="820" y="88" width="9" height="9"/>
  <rect class="p t8" x="905" y="89" width="9" height="9"/>
  <rect class="p t1" x="990" y="88" width="8" height="8"/>
  <rect class="p t5" x="1070" y="90" width="8" height="8"/>
  <rect class="p t3" x="1150" y="88" width="8" height="8"/>

  <!-- Row 6 (y=108) — mirror of row 4 -->
  <rect class="p t4" x="30" y="112" width="7" height="7"/>
  <rect class="p t10" x="95" y="110" width="7" height="7"/>
  <rect class="p t2" x="165" y="112" width="8" height="8"/>
  <rect class="p t7" x="245" y="110" width="8" height="8"/>
  <rect class="p t3" x="330" y="112" width="8" height="8"/>
  <rect class="p t9" x="415" y="110" width="9" height="9"/>
  <rect class="p t5" x="500" y="112" width="9" height="9"/>
  <rect class="p t1" x="585" y="110" width="9" height="9"/>
  <rect class="p t6" x="670" y="112" width="9" height="9"/>
  <rect class="p t8" x="755" y="110" width="9" height="9"/>
  <rect class="p t4" x="840" y="112" width="8" height="8"/>
  <rect class="p t10" x="925" y="110" width="8" height="8"/>
  <rect class="p t2" x="1010" y="112" width="8" height="8"/>
  <rect class="p t7" x="1090" y="110" width="7" height="7"/>
  <rect class="p t3" x="1160" y="112" width="7" height="7"/>

  <!-- Row 7 (y=132) -->
  <rect class="p t6" x="50" y="132" width="6" height="6"/>
  <rect class="p t1" x="120" y="134" width="7" height="7"/>
  <rect class="p t8" x="200" y="132" width="6" height="6"/>
  <rect class="p t4" x="280" y="133" width="7" height="7"/>
  <rect class="p t10" x="365" y="132" width="7" height="7"/>
  <rect class="p t5" x="450" y="134" width="7" height="7"/>
  <rect class="p t2" x="535" y="132" width="7" height="7"/>
  <rect class="p t9" x="625" y="133" width="7" height="7"/>
  <rect class="p t3" x="710" y="132" width="7" height="7"/>
  <rect class="p t7" x="800" y="134" width="7" height="7"/>
  <rect class="p t1" x="880" y="132" width="7" height="7"/>
  <rect class="p t6" x="965" y="133" width="6" height="6"/>
  <rect class="p t4" x="1050" y="132" width="7" height="7"/>
  <rect class="p t8" x="1130" y="134" width="6" height="6"/>

  <!-- Row 8 (y=152) -->
  <rect class="p t9" x="20" y="152" width="5" height="5"/>
  <rect class="p t3" x="75" y="154" width="6" height="6"/>
  <rect class="p t7" x="145" y="152" width="6" height="6"/>
  <rect class="p t1" x="225" y="153" width="5" height="5"/>
  <rect class="p t5" x="310" y="152" width="6" height="6"/>
  <rect class="p t10" x="395" y="154" width="6" height="6"/>
  <rect class="p t2" x="480" y="152" width="6" height="6"/>
  <rect class="p t8" x="560" y="153" width="6" height="6"/>
  <rect class="p t4" x="650" y="152" width="6" height="6"/>
  <rect class="p t6" x="735" y="154" width="6" height="6"/>
  <rect class="p t9" x="820" y="152" width="6" height="6"/>
  <rect class="p t3" x="900" y="153" width="5" height="5"/>
  <rect class="p t7" x="985" y="152" width="6" height="6"/>
  <rect class="p t1" x="1070" y="154" width="6" height="6"/>
  <rect class="p t5" x="1150" y="152" width="5" height="5"/>

  <!-- Row 9 (y=172) -->
  <rect class="p t2" x="40" y="172" width="5" height="5"/>
  <rect class="p t6" x="100" y="174" width="5" height="5"/>
  <rect class="p t10" x="180" y="172" width="6" height="6"/>
  <rect class="p t4" x="260" y="173" width="5" height="5"/>
  <rect class="p t8" x="350" y="172" width="6" height="6"/>
  <rect class="p t1" x="435" y="174" width="5" height="5"/>
  <rect class="p t5" x="520" y="172" width="6" height="6"/>
  <rect class="p t9" x="605" y="173" width="5" height="5"/>
  <rect class="p t3" x="695" y="172" width="6" height="6"/>
  <rect class="p t7" x="775" y="174" width="5" height="5"/>
  <rect class="p t2" x="860" y="172" width="6" height="6"/>
  <rect class="p t6" x="945" y="173" width="5" height="5"/>
  <rect class="p t10" x="1030" y="172" width="6" height="6"/>
  <rect class="p t4" x="1110" y="174" width="5" height="5"/>
  <rect class="p t8" x="1170" y="172" width="5" height="5"/>

  <!-- Row 10 (y=190) -->
  <rect class="p t5" x="55" y="190" width="5" height="5"/>
  <rect class="p t1" x="140" y="190" width="5" height="5"/>
  <rect class="p t7" x="230" y="190" width="5" height="5"/>
  <rect class="p t3" x="320" y="190" width="5" height="5"/>
  <rect class="p t9" x="410" y="190" width="5" height="5"/>
  <rect class="p t6" x="500" y="190" width="5" height="5"/>
  <rect class="p t2" x="590" y="190" width="5" height="5"/>
  <rect class="p t8" x="680" y="190" width="5" height="5"/>
  <rect class="p t4" x="770" y="190" width="5" height="5"/>
  <rect class="p t10" x="860" y="190" width="5" height="5"/>
  <rect class="p t1" x="950" y="190" width="5" height="5"/>
  <rect class="p t5" x="1040" y="190" width="5" height="5"/>
  <rect class="p t9" x="1130" y="190" width="5" height="5"/>
</svg>
